<svg xmlns="http://www.w3.org/2000/svg" xmlns:xlink="http://www.w3.org/1999/xlink" width="78px" height="37px" viewBox="0 0 78 37"><title>MHS Logo RGB Landscape</title><g id="Page-1" stroke="none" stroke-width="1" fill="none" fill-rule="evenodd"><g id="MHS-Logo-RGB-Landscape" transform="translate(0.3, 0.4912)" fill="#FFFFFF" fill-rule="nonzero"><g id="Group" transform="translate(0, 0)"><path d="M17.9,35.2087587 C17.9,35.0087587 17.9,34.7087587 17.8,34.5087587 C17.6,33.6087587 16.8,33.0087587 16.3,32.2087587 C15.5,31.1087587 15.3,29.6087587 14.7,28.4087587 C14.5,28.1087587 14.3,27.8087587 14.3,27.8087587 C14.1,27.8087587 11.1,28.1087587 10.9,28.1087587 C10.6,28.6087587 10.5,28.7087587 10.2,29.1087587 C10,29.3087587 9.9,29.5087587 9.8,29.7087587 C9.6,30.0087587 9.4,30.3087587 9.3,30.6087587 C9,31.2087587 8.7,31.8087587 8.5,32.4087587 C8.3,32.9087587 8,33.4087587 7.9,34.0087587 C7.8,34.7087587 7.8,35.4087587 8,36.1087587 L13.3,36.1087587 C13.3,36.1087587 15.7,36.1087587 18,36.1087587 C18.1,35.7087587 18,35.5087587 17.9,35.2087587" id="Path"></path><path d="M29.8,0.208758651 C21.6,-1.19124135 18.7,4.90875865 18.7,4.90875865 L18.7,4.90875865 C18.7,4.90875865 15.8,-1.19124135 7.6,0.208758651 C-1.77635684e-15,1.50875865 -1.77635684e-15,9.60875865 -1.77635684e-15,10.0087587 L-1.77635684e-15,36.1087587 L5.7,36.1087587 C5.7,35.9087587 5.8,35.7087587 5.8,35.6087587 C6.1,35.6087587 6.1,35.6087587 6.4,35.7087587 C6.2,35.5087587 6.1,35.3087587 6.2,35.0087587 C6.2,34.9087587 6.3,34.7087587 6.4,34.6087587 C7.3,33.5087587 7.1,31.9087587 7.7,30.6087587 C7.9,30.1087587 8.2,29.7087587 8.4,29.3087587 C8.7,28.7087587 8.9,28.6087587 9.1,28.0087587 C8.7,27.9087587 8.4,27.8087587 7.9,27.9087587 C7.8,27.9087587 7.8,27.9087587 7.7,27.9087587 C7.6,27.9087587 7.6,27.8087587 7.7,27.7087587 C7.8,27.3087587 8.2,26.3087587 8.3,26.0087587 C8.8,25.1087587 9.6,22.8087587 10.1,21.9087587 C10.3,21.6087587 10.5,21.2087587 10.6,20.9087587 C11.1,19.7087587 11.1,18.5087587 10.9,17.2087587 C10.5,17.3087587 10.1,17.6087587 9.8,18.0087587 C9.6,18.2087587 9.5,18.5087587 9.3,18.7087587 C9,19.0087587 8.7,19.3087587 8.5,19.7087587 C7.6,20.8087587 6.9,22.2087587 5.7,23.0087587 C5.6,23.1087587 5.4,23.1087587 5.2,23.1087587 C4.6,23.1087587 4.8,22.5087587 4.9,22.3087587 C5,22.1087587 5.7,21.6087587 6.3,21.3087587 C6.4,21.3087587 6.4,21.2087587 6.5,21.2087587 C6.6,21.1087587 6.6,21.1087587 6.6,21.0087587 C7.4,19.2087587 8.7,17.6087587 10.1,16.3087587 C10.2,16.2087587 10.3,16.1087587 10.4,16.0087587 C10.1,16.0087587 9.8,16.0087587 9.6,15.8087587 C9.7,15.5087587 9.7,15.4087587 9.7,15.4087587 C9.7,15.3087587 9.8,15.3087587 9.8,15.2087587 C10.1,15.0087587 10.2,14.6087587 10.3,14.3087587 C10.4,14.0087587 10.4,13.6087587 10.5,13.3087587 C10.6,13.0087587 10.7,12.8087587 10.8,12.5087587 C11,12.1087587 11,11.6087587 11.1,11.2087587 C11.2,10.9087587 11.3,10.6087587 11.5,10.3087587 C11.5,10.2087587 11.7,10.1087587 11.7,10.0087587 C11.7,10.0087587 11.8,9.90875865 11.9,9.80875865 C12,9.70875865 12.2,9.70875865 12.3,9.70875865 C12.6,9.70875865 12.9,9.60875865 13.2,9.70875865 C13.3,9.70875865 13.3,9.80875865 13.4,9.80875865 C13.5,9.80875865 13.6,9.80875865 13.6,9.90875865 C13.8,9.90875865 14,10.0087587 14.1,10.1087587 C14.2,10.2087587 14.3,10.4087587 14.2,10.6087587 L14.2,10.6087587 C14.3,10.7087587 14.4,10.8087587 14.4,11.0087587 C14.4,11.1087587 14.4,11.2087587 14.4,11.3087587 C14.4,11.5087587 14.6,11.6087587 14.7,11.8087587 C14.7,11.8087587 14.8,11.9087587 14.8,11.9087587 C14.8,12.0087587 14.8,12.0087587 14.7,12.0087587 C14.7,12.0087587 14.6,12.0087587 14.6,12.0087587 C14.6,12.0087587 14.5,12.0087587 14.5,12.1087587 C14.5,12.1087587 14.5,12.1087587 14.5,12.2087587 C14.6,12.2087587 14.6,12.3087587 14.5,12.4087587 C14.5,12.4087587 14.4,12.4087587 14.4,12.4087587 C14.4,12.4087587 14.4,12.5087587 14.4,12.5087587 C14.4,12.5087587 14.4,12.6087587 14.3,12.6087587 C14.3,12.6087587 14.3,12.7087587 14.3,12.7087587 C14.3,12.8087587 14.3,12.8087587 14.3,12.9087587 C14.3,13.0087587 14.1,13.0087587 14,13.0087587 C13.9,13.0087587 13.7,13.0087587 13.6,13.0087587 C13.5,13.0087587 13.4,13.0087587 13.3,13.0087587 C13.3,13.0087587 13.1,13.0087587 13.1,13.1087587 C13.1,13.1087587 13,13.2087587 13,13.2087587 C12.9,13.3087587 12.7,13.8087587 12.7,13.9087587 C12.7,13.9087587 12.9,14.2087587 12.9,14.2087587 C13.2,14.7087587 13.5,15.3087587 13.8,15.8087587 C14,16.1087587 14.2,16.5087587 14.3,16.9087587 C14.3,17.2087587 14.3,17.4087587 14.2,17.7087587 C14.1,17.9087587 14,18.1087587 14,18.3087587 L14,18.6087587 L14,18.6087587 C14.4,19.0087587 16.2,20.1087587 16.5,20.2087587 C16.9,20.3087587 17.1,20.4087587 17.4,20.6087587 C17.7,20.8087587 17.9,21.0087587 18.1,21.3087587 C18.3,21.7087587 17.4,21.9087587 17.3,21.9087587 C17.2,21.9087587 17.1,21.9087587 17.1,21.8087587 C16.9,21.7087587 16.8,21.6087587 16.7,21.3087587 C16.6,21.1087587 16.5,21.0087587 16.3,20.9087587 C16.2,20.8087587 16,20.7087587 15.9,20.7087587 C15.3,20.5087587 14.7,20.3087587 14.2,20.0087587 C14.2,20.9087587 14.5,21.8087587 14.7,22.7087587 C15,23.6087587 15.2,24.5087587 15.5,25.4087587 C15.6,25.9087587 15.8,26.3087587 15.9,26.8087587 C16.1,27.3087587 16.5,27.8087587 16.6,28.4087587 C16.7,28.7087587 16.7,29.0087587 16.8,29.3087587 C16.9,29.8087587 17.1,30.3087587 17.4,30.8087587 C17.8,31.6087587 18.2,32.5087587 18.7,33.3087587 C19.1,34.0087587 19.6,34.7087587 20.3,35.2087587 C20.8,35.6087587 21.6,35.6087587 21.8,35.7087587 C21.9,35.8087587 21.9,35.8087587 21.9,35.9087587 C22.6,35.9087587 24,35.9087587 24,35.9087587 L24,12.5087587 C24,12.5087587 24,10.3087587 25.5,10.4087587 C27,10.4087587 26.9,12.5087587 26.9,12.5087587 L26.9,36.1087587 L37.3,36.1087587 L37.3,9.90875865 C37.4,9.50875865 37.4,1.40875865 29.8,0.208758651" id="Path"></path></g><polygon id="Path" points="45 14.3087587 42.6 8.50875865 40.4 16.9087587 40.3 17.0087587 41.6 17.0087587 42.8 12.3087587 45 17.5087587 47.2 12.3087587 48.4 17.0087587 49.7 17.0087587 47.5 8.50875865"></polygon><path d="M57.9,17.0087587 L56.5,17.0087587 L55.6,15.0087587 L52.5,15.0087587 L51.6,17.0087587 L50.2,17.0087587 L54,8.60875865 L57.9,17.0087587 Z M53,13.9087587 L55.1,13.9087587 L54,11.5087587 L53,13.9087587 Z" id="Shape"></path><g id="Group" transform="translate(40.3, 7.4088)"><path d="M23.3,9.6 L21.8,9.6 L19.7,6.4 L19.6,6.4 L19.6,9.6 L18.3,9.6 L18.3,1.6 L20.1,1.6 C21,1.6 21.7,1.8 22.2,2.2 C22.8,2.6 23,3.2 23,3.9 C23,4.4 22.8,4.9 22.5,5.3 C22.2,5.7 21.7,6 21,6.1 L23.3,9.6 Z M19.6,5.3 L19.6,5.3 C20.5,5.3 21.1,5.1 21.4,4.8 C21.6,4.6 21.7,4.4 21.7,4 C21.7,3.7 21.6,3.5 21.5,3.3 C21.3,3.1 21.1,3 20.8,2.9 C20.5,2.8 20.1,2.8 19.6,2.8 L19.6,5.3 L19.6,5.3 Z" id="Shape"></path><polygon id="Path" points="27.6 9.6 26.3 9.6 26.3 6 23.7 1.6 25.1 1.6 26.9 4.6 28.8 1.6 30.2 1.6 27.6 6"></polygon><polygon id="Path" points="31.5 2.8 30.7 2.5 31.7 0 32.7 0.4"></polygon><path d="M34.9,9.9 C34.2,9.9 33.6,9.7 33.1,9.3 C32.6,8.9 32.2,8.4 31.9,7.6 L31.9,7.5 L33.2,7.1 L33.2,7.2 C33.6,8 34.1,8.4 34.9,8.4 C35.3,8.4 35.5,8.3 35.8,8.1 C36,7.9 36.1,7.6 36.1,7.3 C36.1,7.1 36,6.9 35.9,6.7 C35.8,6.5 35.6,6.3 35.4,6.2 C35.2,6.1 34.9,5.9 34.5,5.7 C34.1,5.5 33.7,5.4 33.5,5.2 C33.3,5 33,4.9 32.9,4.6 C32.7,4.4 32.6,4.2 32.5,4 C32.4,3.8 32.4,3.6 32.4,3.3 C32.4,2.7 32.6,2.2 33.1,1.8 C33.6,1.4 34.1,1.2 34.8,1.2 C35.2,1.2 35.7,1.3 36.1,1.5 C36.5,1.7 36.9,2 37.2,2.4 L37.3,2.5 L36.3,3.3 L36.2,3.2 C36,3 35.8,2.8 35.6,2.7 C35.4,2.6 35.2,2.5 34.9,2.5 C34.5,2.5 34.3,2.6 34,2.7 C33.8,2.8 33.7,3 33.7,3.3 C33.7,3.5 33.8,3.7 34,3.8 C34.2,4 34.5,4.2 35,4.4 C35.5,4.6 35.9,4.8 36.2,5 C36.5,5.2 36.7,5.4 36.9,5.6 C37.1,5.8 37.2,6.1 37.3,6.3 C37.4,6.9 37.4,7.1 37.4,7.4 C37.4,8.1 37.2,8.7 36.7,9.1 C36.2,9.6 35.6,9.9 34.9,9.9" id="Path"></path><polygon id="Path" points="6.1 20.1 4.8 20.1 4.8 16.4 1.3 16.4 1.3 20.1 -1.42108547e-14 20.1 -1.42108547e-14 12.2 1.3 12.2 1.3 15.1 4.8 15.1 4.8 12.2 6.1 12.2"></polygon><path d="M12,20.4 C10.8,20.4 9.7,20 8.9,19.1 C8,18.3 7.6,17.2 7.6,16.1 C7.6,15 8,14 8.9,13.1 C9.8,12.3 10.8,11.9 12,11.9 C13.2,11.9 14.2,12.3 15.1,13.1 C16,13.9 16.4,14.9 16.4,16 C16.4,17.2 16,18.2 15.1,19.1 C14.2,20 13.2,20.4 12,20.4 M11.9,13.2 C11.1,13.2 10.4,13.5 9.8,14.1 C9.2,14.7 8.9,15.4 8.9,16.2 C8.9,17 9.2,17.7 9.8,18.3 C10.4,18.9 11.1,19.1 12,19.1 C12.8,19.1 13.5,18.8 14.1,18.2 C14.7,17.6 15,16.9 15,16.2 C15,15.4 14.7,14.7 14.1,14.1 C13.5,13.5 12.8,13.2 11.9,13.2" id="Shape"></path><path d="M21,20.4 C20.1,20.4 19.3,20.1 18.7,19.5 C18.1,18.9 17.8,18 17.8,16.9 L17.8,12.2 L19.1,12.2 L19.1,17.1 C19.1,17.8 19.3,18.3 19.6,18.7 C19.9,19.1 20.4,19.2 20.9,19.2 C21.5,19.2 21.9,19 22.3,18.7 C22.6,18.4 22.8,17.9 22.8,17.3 L22.8,12.2 L24.1,12.2 L24.1,17.2 C24.1,18.2 23.8,19 23.3,19.6 C22.7,20.1 21.9,20.4 21,20.4" id="Path"></path><path d="M28.6,20.4 C27.9,20.4 27.3,20.2 26.8,19.8 C26.3,19.4 25.9,18.9 25.6,18.1 L25.6,18 L26.9,17.6 L26.9,17.7 C27.3,18.5 27.8,18.9 28.6,18.9 C29,18.9 29.2,18.8 29.5,18.6 C29.7,18.4 29.8,18.1 29.8,17.8 C29.8,17.6 29.7,17.4 29.6,17.2 C29.5,17 29.3,16.8 29.1,16.7 C28.9,16.6 28.6,16.4 28.2,16.2 C27.8,16 27.4,15.9 27.2,15.7 C27,15.5 26.7,15.4 26.6,15.1 C26.4,14.9 26.3,14.7 26.2,14.5 C26.1,14.3 26.1,14.1 26.1,13.8 C26.1,13.2 26.3,12.7 26.8,12.3 C27.3,11.9 27.8,11.7 28.5,11.7 C28.9,11.7 29.4,11.8 29.8,12 C30.3,12.2 30.6,12.5 30.9,12.9 L31,13 L30,13.8 L29.9,13.7 C29.7,13.5 29.5,13.3 29.3,13.2 C29.1,13.1 28.9,13 28.6,13 C28.2,13 28,13.1 27.7,13.2 C27.5,13.4 27.4,13.5 27.4,13.8 C27.4,14 27.5,14.2 27.7,14.3 C27.9,14.5 28.2,14.7 28.7,14.9 C29.2,15.1 29.6,15.3 29.9,15.5 C30.2,15.7 30.4,15.9 30.6,16.1 C30.8,16.3 30.9,16.6 31,16.8 C31.1,17.1 31.1,17.3 31.1,17.6 C31.1,18.3 30.9,18.9 30.4,19.3 C29.9,20.2 29.3,20.4 28.6,20.4" id="Path"></path><polygon id="Path" points="37.3 20.1 32.8 20.1 32.8 12.2 37.3 12.2 37.3 13.4 34.1 13.4 34.1 15.1 37 15.1 37 16.4 34.1 16.4 34.1 18.9 37.3 18.9"></polygon></g><path d="M42.6,36.3087587 C42.1,36.3087587 41.6,36.2087587 41.3,35.9087587 C40.9,35.6087587 40.6,35.2087587 40.4,34.7087587 L40.4,34.6087587 L41.4,34.3087587 L41.4,34.4087587 C41.7,35.0087587 42.1,35.3087587 42.6,35.3087587 C42.9,35.3087587 43.1,35.2087587 43.3,35.1087587 C43.5,34.9087587 43.6,34.8087587 43.6,34.5087587 C43.6,34.4087587 43.6,34.2087587 43.5,34.1087587 C43.4,34.0087587 43.3,33.8087587 43.2,33.7087587 C43.1,33.6087587 42.8,33.5087587 42.5,33.4087587 C42.2,33.3087587 41.9,33.1087587 41.7,33.0087587 C41.5,32.9087587 41.4,32.7087587 41.2,32.6087587 C41.1,32.4087587 41,32.3087587 40.9,32.1087587 C40.7,31.8087587 40.7,31.7087587 40.7,31.5087587 C40.7,31.1087587 40.9,30.7087587 41.2,30.4087587 C41.5,30.1087587 42,29.9087587 42.5,29.9087587 C42.8,29.9087587 43.2,30.0087587 43.5,30.1087587 C43.8,30.2087587 44.1,30.5087587 44.3,30.8087587 L44.4,30.9087587 L43.6,31.5087587 L43.5,31.4087587 C43.3,31.2087587 43.2,31.1087587 43.1,31.0087587 C43,30.9087587 42.8,30.9087587 42.5,30.9087587 C42.2,30.9087587 42,31.0087587 41.9,31.1087587 C41.8,31.2087587 41.7,31.3087587 41.7,31.5087587 C41.7,31.7087587 41.8,31.8087587 41.9,31.9087587 C42,32.0087587 42.3,32.2087587 42.7,32.3087587 C43.1,32.5087587 43.4,32.6087587 43.6,32.8087587 C43.8,32.9087587 44,33.1087587 44.1,33.3087587 C44.2,33.5087587 44.3,33.7087587 44.4,33.9087587 C44.5,34.1087587 44.5,34.3087587 44.5,34.5087587 C44.5,35.0087587 44.3,35.4087587 43.9,35.8087587 C43.6,36.1087587 43.1,36.3087587 42.6,36.3087587" id="Path"></path><polygon id="Path" points="49 36.1087587 45.6 36.1087587 45.6 30.1087587 49 30.1087587 49 31.1087587 46.5 31.1087587 46.5 32.3087587 48.8 32.3087587 48.8 33.3087587 46.5 33.3087587 46.5 35.1087587 49 35.1087587"></polygon><path d="M54.1,36.1087587 L53,36.1087587 L51.4,33.7087587 L51.4,33.7087587 L51.4,36.1087587 L50.4,36.1087587 L50.4,30.1087587 L51.7,30.1087587 C52.3,30.1087587 52.9,30.3087587 53.3,30.6087587 C53.7,30.9087587 53.9,31.4087587 53.9,31.9087587 C53.9,32.3087587 53.8,32.7087587 53.5,33.0087587 C53.3,33.3087587 52.9,33.5087587 52.4,33.6087587 L54.1,36.1087587 Z M51.3,32.8087587 L51.3,32.8087587 C52,32.8087587 52.4,32.7087587 52.7,32.4087587 C52.8,32.3087587 52.9,32.1087587 52.9,31.8087587 C52.9,31.6087587 52.8,31.4087587 52.7,31.3087587 C52.6,31.2087587 52.4,31.1087587 52.2,31.0087587 C52,30.9087587 51.7,30.9087587 51.3,30.9087587 L51.3,32.8087587 Z" id="Shape"></path><polygon id="Path" points="57.3 36.4087587 54.6 30.1087587 55.6 30.1087587 57.4 34.1087587 59.1 30.1087587 60.2 30.1087587"></polygon><rect id="Rectangle" x="61" y="30.1087587" width="1" height="6"></rect><path d="M66.4,36.3087587 C65.5,36.3087587 64.7,36.0087587 64,35.4087587 C63.3,34.8087587 63,34.0087587 63,33.1087587 C63,32.2087587 63.3,31.5087587 64,30.9087587 C64.6,30.3087587 65.4,30.0087587 66.3,30.0087587 C66.9,30.0087587 67.5,30.1087587 68.1,30.4087587 L68.2,30.4087587 L68.2,31.5087587 L68.1,31.4087587 C66.7,30.7087587 65.6,30.8087587 64.8,31.6087587 C64.4,32.0087587 64.1,32.5087587 64.1,33.1087587 C64.1,33.7087587 64.3,34.2087587 64.8,34.7087587 C65.3,35.1087587 65.8,35.3087587 66.5,35.3087587 C67,35.3087587 67.5,35.1087587 68.1,34.8087587 L68.2,34.7087587 L68.2,35.8087587 L68.2,35.8087587 C67.7,36.1087587 67.1,36.3087587 66.4,36.3087587" id="Path"></path><g id="Group" transform="translate(69.3, 30.0088)"><polygon id="Path" points="3.4 6.1 0 6.1 0 0.1 3.4 0.1 3.4 1.1 1 1.1 1 2.3 3.2 2.3 3.2 3.3 1 3.3 1 5.1 3.4 5.1"></polygon><path d="M6.5,6.3 C6,6.3 5.5,6.2 5.2,5.9 C4.8,5.6 4.5,5.2 4.3,4.7 L4.3,4.6 L5.3,4.3 L5.3,4.4 C5.6,5 6,5.3 6.5,5.3 C6.8,5.3 7,5.2 7.2,5.1 C7.4,4.9 7.5,4.8 7.5,4.5 C7.5,4.4 7.5,4.2 7.4,4.1 C7.3,4 7.2,3.8 7.1,3.7 C7,3.6 6.7,3.5 6.4,3.4 C6.1,3.3 5.8,3.1 5.6,3 C5.4,2.9 5.3,2.7 5.1,2.6 C5,2.4 4.9,2.3 4.8,2.1 C4.7,1.9 4.7,1.8 4.7,1.6 C4.7,1.2 4.9,0.8 5.2,0.5 C5.5,0.2 6,0 6.5,0 C6.8,0 7.2,0.1 7.5,0.2 C7.8,0.3 8.1,0.6 8.3,0.9 L8.4,1 L7.5,1.5 L7.4,1.4 C7.2,1.2 7.1,1.1 7,1 C6.9,0.9 6.7,0.9 6.4,0.9 C6.1,0.9 5.9,1 5.8,1.1 C5.6,1.2 5.6,1.4 5.6,1.5 C5.6,1.7 5.7,1.8 5.8,1.9 C5.9,2 6.2,2.2 6.6,2.3 C7,2.5 7.3,2.6 7.5,2.8 C7.7,2.9 7.9,3.1 8,3.3 C8.1,3.5 8.2,3.7 8.3,3.9 C8.4,4.1 8.4,4.3 8.4,4.5 C8.4,5 8.2,5.4 7.8,5.8 C7.5,6.1 7,6.3 6.5,6.3" id="Path"></path></g></g></g></svg>